<svg xmlns="http://www.w3.org/2000/svg" xmlns:xlink="http://www.w3.org/1999/xlink" id="Layer_1" x="0px" y="0px" version="1.1" viewBox="0 0 566.9 566.9" xml:space="preserve"><style>.st0{fill:#0094ab}.st0,.st2,.st3{clip-path:url(#SVGID_2_)}.st3{fill:#61461c}</style><defs><path id="SVGID_1_" d="M0 0h566.9v566.9H0z"/></defs><clipPath id="SVGID_2_"><use overflow="visible" xlink:href="#SVGID_1_"/></clipPath><path d="M270.3 123.9c-22.1 24.9-44.3 49.8-64.3 76.2a381 381 0 00-40 62.5 248 248 0 00-9.9 22.5 153.4 153.4 0 00-10.5 47.5 109 109 0 001.5 24.2c.4 2 .7 4 1.3 5.9l.7 3 .9 2.9c.5 2 1.3 3.9 1.9 5.8l2.2 5.7a113.4 113.4 0 0019.8 30.6l1 1.1 1.1 1.1 2.2 2.1 4.7 4a113.5 113.5 0 0020.9 13l5.7 2.6 5.8 2.3c3.9 1.5 7.9 2.7 11.8 3.9a116.9 116.9 0 01-46.1-19.1c-1.8-1.2-3.4-2.6-5-3.9l-2.4-2.1-1.2-1.1-1.1-1.1a114.3 114.3 0 01-29.6-55.5 115 115 0 01-2-25.5c.6-17.1 4.6-33.8 10.6-49.6 6-15.8 13.9-30.8 22.7-45.1a362.3 362.3 0 0129.2-40.9c20.8-26.1 44.1-50 68.1-73" class="st0"/><path fill="#c49a6c" d="M418.2 304.5l-2.4 11.9a263 263 0 01-3.4 12.7c-3 10.5-10.1 17-20.1 20.8-1.2.4-1.7 1-2 2.2l-1.4 4.4v.3l.5-.3c4.4-4.5 9.9-7.1 16-8.8.8-.2 1.8-.8 2.2-1.6l8.6-14.9a6 6 0 011.7-2.2l-.4 1.8c-2.6 7.5-6 14.5-10.2 21.2l-.9 1.6a30.8 30.8 0 01-22.8 19 4 4 0 00-1.9 1.5c-.9 1.5-1.6 3.2-2.6 5.3 3.8-2.6 7.5-4.3 11.5-5.2 1.3-.3 2.7-.7 4-.7 1.9 0 3.1-1 4.3-2.3l10-11.5c.6-.7 1.3-1.4 2.2-1.9-.3.7-.6 1.4-1.1 2l-11.4 15.6-1.4 2.1a31 31 0 01-25.7 17.1c-.8.1-1.6.7-2.2 1.3-.8.8-1.3 1.9-2 2.9 3.1-.7 6.1-1.4 9.1-1.9a11 11 0 013.6-.2c2.6.3 4.6-.6 6.5-2.2l12.1-9.3c.7-.5 1.4-1.1 2.4-1.3l-1.2 1.5-13.8 12.8c-.7.7-1.5 1.4-2.1 2.2a30.4 30.4 0 01-27 13.7 4 4 0 00-3.1 1.3l-5.7 6.1c12.8-2.5 27.8-13.3 37.7-5.3-2.4-1-4.7-2.2-7.1-3.1-10.5-3.9-24.8 9.1-35.3 13.3-1.5.6-2.7 1.8-3.9 2.9a39 39 0 0124.1 4c-4-.6-7.6-1.2-11.2-1.6-6.4-.6-12.6.2-18.6 2.5-1 .4-1.9 1-2.8 1.6-2.4 1.6-4.6 3.4-7 4.9-2.1 1.3-4 3.6-5.3 5.5-1 0-3.4-2.1-4.4-2.1v-3.4c1.3-1.2 2.4-2.5 3.9-3.5 12.2-8 23.6-16.9 33.5-27.7 14.1-15.4 24.8-33 32.4-52.5 3.4-8.8 6.1-17.9 9-26.9a5 5 0 00-.2-3.2 31.2 31.2 0 013.3-30.9c.4-.6.7-1.6.7-2.3l-.3-21.9v-2l.4-.1c.4 2.3 1 4.6 1.2 6.9.6 5.5.9 11 1.4 16.5.1.9.2 1.9.6 2.8a30 30 0 01-2.4 29.8c-1.9 2.8-2.4 5.8-3.1 9.4l2.1-3c3.5-4.6 8.1-7.6 13.2-10 .8-.4 1.6-1.2 1.9-1.9l5.2-15.9 1.1-2.5v2.7" clip-path="url(#SVGID_2_)"/><path d="M216.7 271.8H202v-.5c1.3-.1 2.3-.3 2.8-.7.9-.6 1.4-1.4 1.4-2.4a8 8 0 00-.6-2.5l-.4-.9-2.1-5.3h-9.8l-1.2 3.1-.6 1.4c-.7 1.6-1 2.9-1 3.9 0 .6.1 1.1.4 1.5.2.5.6.9 1 1.2.6.4 1.3.6 2.2.7v.5h-10v-.5c.8 0 1.5-.2 2.1-.6.6-.3 1.2-.9 1.7-1.7a43.5 43.5 0 003.2-6.7l8.2-21.1h1.3l9.7 23.5 1.7 3.8a5 5 0 001.4 1.7l1.2.6 2.1.4v.6zm-14-13.2L198 247l-4.4 11.6h9.1zM244.9 241.1l.3 10h-.5l-.4-1c-.5-1.4-.9-2.5-1.3-3.2-.6-1.3-1.4-2.4-2.5-3.4a7.3 7.3 0 00-5.6-2.2 9 9 0 00-4.4 1.1 9.8 9.8 0 00-3 2.8 18.1 18.1 0 00-3.6 11.5c0 2.3.3 4.5.9 6.3.6 1.9 1.4 3.5 2.6 4.7 2.1 2.4 4.8 3.5 8.2 3.5 1.7 0 3.2-.3 4.6-.9a7.3 7.3 0 003.2-2.5c.9-1.2 1.5-2.9 1.9-5l.5.1a12 12 0 01-1.9 5.6 9.7 9.7 0 01-3.9 3 15 15 0 01-5.8 1.1c-2.1 0-4-.3-5.9-.9-3-1-5.3-2.8-7-5.3a16.3 16.3 0 01-2.5-9.2c0-2.7.5-5.2 1.5-7.5s2.4-4.2 4.1-5.6a17.5 17.5 0 0116.3-2.5l1.8.6.9.2c.4 0 .7-.2.9-.5l.4-.7h.2zM270.3 271.8c.9.6 1.9 1 3 1.4a12.6 12.6 0 006 .2c.8-.2 1.5-.5 2-.9.4-.3.8-.7 1.1-1.2.3-.4.5-1.1.7-1.9h.4c-.1 1.1-.2 2-.5 2.8-.3.8-.8 1.5-1.5 2.2-1.8 1.9-4.3 2.8-7.7 2.8-2 0-3.6-.4-4.9-1.1-1.2-.7-2.5-1.8-3.8-3.5l-.1-.2a15 15 0 01-4.1-.6 16.7 16.7 0 01-9.7-7.5 16 16 0 01-.4-14.7c1.1-2.1 2.6-4 4.7-5.6a16.9 16.9 0 0110.3-3.7c2.1 0 4.2.4 6.2 1.3a17 17 0 017.6 6.5c1.6 2.5 2.4 5.2 2.4 8.2 0 1.9-.3 3.7-1 5.5-.7 1.8-1.7 3.4-2.9 4.9a18.8 18.8 0 01-3.4 3 15 15 0 01-4.4 2.1m-12.4-3.9a10 10 0 018.6 1.2l2.7 1.9.2.2c1-.5 1.8-1.1 2.5-1.8s1.4-1.6 2.1-2.8a21.5 21.5 0 00-1.2-21.9 10 10 0 00-3.2-2.7 8.8 8.8 0 00-4.1-.9c-1.6 0-3 .3-4.1.8a10 10 0 00-3.2 2.7 14.9 14.9 0 00-2.7 5.5c-.6 2.2-1 4.4-1 6.8 0 2.2.3 4.2.8 5.9.5 1.8 1.4 3.5 2.6 5.1m6.4 4l-.2-.2c-1-1.3-1.9-2.1-2.7-2.6a4 4 0 00-2.2-.8l-.9.2a10 10 0 002.8 2.4c.9.5 2 .9 3.2 1M299.1 241.3v.5c-.9 0-1.5.2-2.1.4-.5.2-1 .5-1.4.9-.5.5-.8 1.1-1 1.9-.2.7-.2 2-.2 3.8v12.7l.2 4.5a7 7 0 001 2.5c.7 1.2 1.6 2 2.7 2.6 1.1.5 2.4.8 4 .8s3-.2 4.4-.7a9.2 9.2 0 003.5-2 5.2 5.2 0 001.8-4l.1-4.3v-12.5a14 14 0 00-.3-3.4 4 4 0 00-1-1.8c-.4-.4-.9-.7-1.4-.9-.5-.2-1.2-.3-2.1-.4v-.5h10.3v.5c-.8 0-1.5.2-2.1.4-.5.2-1 .5-1.4.9a4 4 0 00-1 1.8 14 14 0 00-.3 3.4v14.1c0 2.1-.2 3.6-.5 4.6-.3 1-1 1.9-1.9 2.7-2.2 1.9-5.3 2.8-9.3 2.8-4.2 0-7.3-.9-9.3-2.7a6.6 6.6 0 01-2.3-4.5l-.1-3.6v-13.6l-.2-3.4a4 4 0 00-1-1.8c-.4-.4-.9-.7-1.4-.9-.5-.2-1.2-.3-2.1-.4v-.5h14.4zM350.8 271.8h-14.7v-.5c1.3-.1 2.3-.3 2.8-.7.9-.6 1.4-1.4 1.4-2.4a8 8 0 00-.6-2.5l-.4-.9-2.1-5.3h-9.8l-1.2 3.1-.6 1.4c-.7 1.6-1 2.9-1 3.9 0 .6.1 1.1.4 1.5.2.5.6.9 1 1.2.6.4 1.3.6 2.2.7v.5h-10v-.5c.8 0 1.5-.2 2.1-.6.6-.3 1.2-.9 1.7-1.7a43.5 43.5 0 003.2-6.7l8.2-21.1h1.3l9.7 23.5 1.7 3.8a5 5 0 001.4 1.7l1.2.6 2.1.4v.6zm-14.1-13.2L332 247l-4.4 11.6h9.1zM264.1 294.7l5.9 8.2 1.7-3.5c.3-.8.5-1.5.5-2.1 0-1.1-.8-1.8-2.4-2.1v-.4h6.8v.4c-.5 0-1 .1-1.3.3-.3.1-.7.3-1 .6-.6.6-1.3 1.8-2.2 3.6l-.5 1.1-1.3 2.5 1.6 1.9 1.6 1.7a11 11 0 001.7 1.3c.5.3 1 .4 1.4.4a2 2 0 001.3-.4c.3-.3.6-.7.9-1.4l.4.2c-.6 2-1.8 3-3.8 3-.6 0-1.3-.1-2-.4l-1.9-1c-.9-.7-1.8-1.5-2.7-2.7l-1.3 1.7a7.2 7.2 0 01-5.3 2.3 7 7 0 01-5-1.9 6 6 0 01-1.6-4.2c0-1.7.5-3.2 1.5-4.6l1.4-1.5 2.3-1.7.3-.2-1.5-2.4a8.5 8.5 0 01-1.1-3.7c0-.7.2-1.4.5-2 .4-.9 1-1.5 1.8-2s1.8-.7 2.9-.7c1.5 0 2.7.4 3.6 1.2.9.8 1.4 1.8 1.4 3a4 4 0 01-.7 2.4c-.5.7-1.3 1.4-2.3 2.1l-1.6 1m-2.6 1.6c-1 .6-1.7 1.4-2.3 2.5a8.6 8.6 0 00-.4 6.2c.3.8.7 1.6 1.1 2.1a4.5 4.5 0 003.6 1.6c1.1 0 2.1-.3 2.9-1l.9-.9 1-1.4-6.8-9.1zm2.2-2l1.2-1.1c.3-.3.5-.7.7-1.2.4-.9.6-1.8.6-2.8 0-1.2-.3-2.1-.8-2.8-.6-.7-1.3-1-2.3-1-.8 0-1.5.3-2 .8s-.8 1.2-.8 2.1l.3 1.5 1.2 2.1 1.9 2.4M193.5 330.9v8.9l.2 3.4c.2.7.5 1.3.9 1.8l1.4 1c.5.2 1.2.3 2.1.4v.5h-14.3v-.5c.7 0 1.4-.1 2-.3.6-.2 1.1-.5 1.5-.9.4-.5.7-1.1.9-1.9.2-.8.3-1.9.3-3.3v-16.5l-.2-3a3.5 3.5 0 00-1.9-2.9c-.6-.3-1.5-.5-2.6-.6v-.5h23.4l.6 7.3-.5.1-1-2.6a7.2 7.2 0 00-3-3c-.7-.4-1.6-.7-2.5-.9-1-.2-2.3-.2-3.9-.2h-3.5v13.2h.9c2.6 0 4.6-.6 5.7-1.8.5-.5.9-1.1 1.2-1.8.3-.7.4-1.6.5-2.7h.5l-.1 13.6h-.5a12 12 0 00-.8-3.5 5 5 0 00-1.8-2c-.6-.4-1.3-.6-2.2-.8a8 8 0 00-3.3-.5M240 346.9h-14.7v-.5c1.3-.1 2.3-.3 2.8-.7.9-.6 1.4-1.4 1.4-2.4a8 8 0 00-.6-2.5l-.4-.9-2.1-5.3h-9.8l-1.2 3.1-.6 1.4c-.7 1.6-1 2.9-1 3.9 0 .6.1 1.1.4 1.5.2.5.6.9 1 1.2.6.4 1.3.6 2.2.7v.5h-10v-.5c.8 0 1.5-.2 2.1-.6.6-.3 1.2-.9 1.7-1.7a43.5 43.5 0 003.2-6.7l8.2-21.1h1.3l9.7 23.5 1.7 3.8a5 5 0 001.4 1.7l1.2.6 2.1.4v.6zm-14.1-13.2l-4.7-11.6-4.4 11.6h9.1zM250.2 331.9v7.9c0 1.5.1 2.7.3 3.4a4 4 0 001 1.8c.4.4.9.7 1.4.9.5.2 1.2.3 2.1.4v.5h-14.3v-.5c.9 0 1.6-.2 2.1-.4s1-.5 1.4-.9a4 4 0 001-1.8c.2-.7.2-1.9.2-3.4v-16.5l-.2-3.4a4 4 0 00-1-1.8c-.4-.4-.9-.7-1.4-.9-.5-.2-1.2-.3-2.1-.4v-.5h14.4c2.3.1 4.1.4 5.4.9a7.1 7.1 0 014.6 6.8 7 7 0 01-2.6 5.6c-.5.4-1.1.8-1.8 1-.6.3-1.5.5-2.6.8a7 7 0 012 1.2c.3.3.7.7.9 1.2l1.3 2.5a162.9 162.9 0 004.7 8.7c.4.5.7.8 1.1 1l1.4.4v.5H262l-.7-1.6-1.6-3.6c-.9-2.1-1.9-4-2.8-5.7-1-1.6-1.8-2.7-2.6-3.3-.4-.3-.8-.5-1.3-.6a8 8 0 00-1.7-.2h-1.1zm0-.5h.8a19 19 0 004-.3c.8-.2 1.5-.6 2.2-1.3a7.1 7.1 0 002.3-5.5c0-1.2-.2-2.3-.7-3.3-.5-1-1.1-1.9-1.9-2.6-.6-.5-1.4-.9-2.2-1.1-.9-.2-2.1-.3-3.7-.3h-.9v14.4zM284.5 316.3v.5c-.9 0-1.5.2-2.1.4-.5.2-1 .5-1.4.9-.6.6-.9 1.4-1.1 2.5l-.1 2.7v16.5l.2 2.9a3.7 3.7 0 002.1 3c.6.3 1.4.5 2.4.5v.5h-14.3v-.5c.9 0 1.6-.2 2.1-.4s1-.5 1.4-.9a4 4 0 001-1.8c.2-.7.2-1.9.2-3.4v-16.5l-.2-3.4a4 4 0 00-1-1.8c-.4-.4-.9-.7-1.4-.9-.5-.2-1.2-.3-2.1-.4v-.5h14.3zM292.3 320.4v19.5c0 1.5.1 2.7.3 3.4.2.7.5 1.3.9 1.8.4.4.9.7 1.4.9.5.2 1.2.3 2.1.4v.5h-10.3v-.5c.8 0 1.5-.2 2.1-.4.5-.2 1-.5 1.4-.9.5-.5.8-1.1.9-1.8.2-.7.3-1.9.3-3.4v-16.5c0-1.5-.1-2.6-.3-3.4a5 5 0 00-.9-1.8c-.4-.4-.9-.7-1.4-.9-.5-.2-1.2-.3-2.1-.4v-.5h8.6l18.2 23.2v-16.1a14 14 0 00-.3-3.4 4 4 0 00-1-1.8c-.4-.4-.9-.7-1.4-.9-.5-.2-1.2-.3-2.1-.4v-.5H319v.5c-1.5 0-2.7.4-3.5 1.3a4 4 0 00-1 1.8 14 14 0 00-.3 3.4V347h-1l-20.9-26.6zM352.5 346.9h-14.7v-.5c1.3-.1 2.3-.3 2.8-.7.9-.6 1.4-1.4 1.4-2.4a8 8 0 00-.6-2.5l-.4-.9-2.1-5.3h-9.8l-1.2 3.1-.6 1.4c-.7 1.6-1 2.9-1 3.9 0 .6.1 1.1.4 1.5.2.5.6.9 1 1.2.6.4 1.3.6 2.2.7v.5h-10v-.5c.8 0 1.5-.2 2.1-.6.6-.3 1.2-.9 1.7-1.7a43.5 43.5 0 003.2-6.7l8.2-21.1h1.3l9.7 23.5 1.7 3.8a5 5 0 001.4 1.7l1.2.6 2.1.4v.6zm-14.1-13.2l-4.7-11.6-4.4 11.6h9.1z" class="st2"/><path d="M185.4 366h4.3c1.8 0 3.5.1 4.9.9 1.4.8 2.4 2.2 2.4 4.1 0 1.9-.9 3.3-2.3 4.1-1.4.9-3.4.9-5.5.9h-1.7v6.6h-2.2V366zm4.2 8.2c2 0 3.1-.1 4-.6.8-.5 1.3-1.3 1.3-2.5s-.6-2.1-1.5-2.6c-1-.5-2.2-.5-3.8-.5h-2v6.2h2zM199.2 366h2.2v16.6h-2.2zM203.5 382.7v-.1l9.4-14.6h-8.8v-2h12.6l.1.1-9.5 14.5v.1h9.3v2zM217.7 382.7v-.1l9.5-14.6h-8.9v-2H231v.1l-9.4 14.5v.1h9.2v2zM238.3 366h2.1l6.9 16.6H245l-2-4.6h-7.5l-1.9 4.6h-2.2l6.9-16.6zm-2 10.1h6l-1.4-3.4-1.6-4.1-1.6 4.2-1.4 3.3zM253.9 366h2.2v16.6h-2.2zM263.5 368h-5.6v-2h13.4v2h-5.6v14.7h-2.2zM276.1 366h2.1l6.9 16.6h-2.3l-1.9-4.6h-7.5l-1.9 4.6h-2.2l6.8-16.6zm-2 10.1h6l-1.4-3.4-1.6-4.1-1.6 4.2-1.4 3.3zM286.6 366h2.2v14.7h7.9v2h-10.1zM298.7 366h2.2v16.6h-2.2zM309.3 366h2.1l6.9 16.6H316l-2-4.6h-7.5l-1.9 4.6h-2.2l6.9-16.6zm-2 10.1h6l-1.4-3.4-1.6-4.1-1.6 4.2-1.4 3.3zM319.8 382.7V366h2.1l7 9.2 2.9 3.9V366h2.1v16.6h-2.1l-7-9.2-2.9-3.9V382.6h-2.1zM342.2 366h2.1l6.9 16.6h-2.3L347 378h-7.5l-1.9 4.6h-2.2l6.8-16.6zm-2 10.1h6l-1.4-3.4-1.6-4.1-1.6 4.2-1.4 3.3z" class="st3"/><path d="M191.7 357.3a1606.5 1606.5 0 0176-1.4l19 .1 19 .2c12.7.2 25.3.6 38 1.1a1205 1205 0 01-57 1.3l-19 .1a2407 2407 0 01-76-1.4" class="st0"/></svg>